<svg t="1680163145642" class="icon" viewBox="0 0 1024 1024" version="1.1" xmlns="http://www.w3.org/2000/svg" p-id="5026" width="16" height="16"><path d="M256.393 227.87l-58.986 10.402v547.455l58.986 10.402 314.593 55.472L629.972 862V162l-58.986 10.397-314.593 55.473z m314.593 563.834l-314.593-55.472V287.768l314.593-55.472v559.408zM757.776 212.154h-98.31v58.986h98.31c5.328 0 9.831 4.503 9.831 9.831v462.058c0 5.328-4.503 9.831-9.831 9.831h-98.31v58.986h98.31c37.946 0 68.817-30.876 68.817-68.817V280.971c0-37.942-30.871-68.817-68.817-68.817z" fill="#787878" p-id="5027"></path><path d="M295.717 541.493l0.001 98.31h58.984l0.001-58.986h176.96l-0.001-6.552h0.001V384.196H295.719l-0.001 98.31h-0.002l0.004 58.986h-0.003z m176.961-19.662H354.704l-0.001-78.648h117.975v78.648z" fill="#787878" p-id="5028"></path></svg>